<svg xmlns="http://www.w3.org/2000/svg" xmlns:xlink="http://www.w3.org/1999/xlink" width="500" zoomAndPan="magnify" viewBox="0 0 375 374.999991" height="500" preserveAspectRatio="xMidYMid meet" version="1.0"><defs><clipPath id="d307f69c1a"><path d="M 114 125 L 262.5 125 L 262.5 230 L 114 230 Z M 114 125 " clip-rule="nonzero"/></clipPath><clipPath id="aa1191a93a"><path d="M 112.5 151 L 262.5 151 L 262.5 228 L 112.5 228 Z M 112.5 151 " clip-rule="nonzero"/></clipPath></defs><path fill="#7f7f7f" d="M 180.941406 175.527344 C 164.421875 166.761719 153.140625 165.957031 153.667969 162.125 C 154.078125 159.125 156.738281 160.160156 157.402344 152.300781 C 158.039062 144.753906 150.988281 138.128906 143.539062 137.601562 C 136.160156 136.535156 127.722656 141.148438 126.578125 148.953125 C 124.945312 156.753906 130.550781 164.980469 138.300781 166.574219 C 147.273438 169.207031 158.691406 169.59375 169.992188 180.601562 L 178.671875 189.050781 L 229.589844 215.339844 C 236.089844 218.164062 244.363281 219.242188 251.273438 213.410156 Z M 148.035156 144.25 C 155.226562 149.683594 152.960938 161.414062 144.550781 162.585938 C 136.875 164.128906 128.503906 155.707031 131.929688 148.082031 C 134.195312 141.75 143.109375 140.53125 148.035156 144.25 Z M 148.035156 144.25 " fill-opacity="1" fill-rule="nonzero"/><g clip-path="url(#d307f69c1a)"><path stroke-linecap="butt" transform="matrix(-0.0382712, -0.271353, 0.270941, -0.0383295, 69.082375, 333.767088)" fill="none" stroke-linejoin="miter" d="M 514.566452 485.538275 C 554.681754 430.23367 563.355548 389.821536 576.931669 393.685547 C 587.561444 396.700857 582.461555 405.798704 610.519155 412.212875 C 637.461625 418.368609 665.002651 396.235528 670.715643 369.548601 C 678.340404 343.39123 665.984746 310.504461 638.370328 302.379556 C 611.019607 292.489729 578.430672 308.575355 568.710861 335.806443 C 554.611818 366.931585 547.37832 408.051772 501.829212 443.327244 L 466.86442 470.423735 L 345.851904 641.260631 C 332.325166 663.340425 324.200829 692.728804 341.740696 720.710671 Z M 644.395747 382.425218 C 621.087561 405.675225 579.861782 391.489892 579.926434 360.45845 C 578.274901 331.895056 612.983159 305.9013 638.782293 322.189529 C 660.502755 333.619678 660.3499 366.4985 644.395747 382.425218 Z M 644.395747 382.425218 " stroke="#000000" stroke-width="7.541" stroke-opacity="1" stroke-miterlimit="4"/></g><path fill="#7f7f7f" d="M 180.441406 188.546875 C 162.1875 192.597656 151.097656 190.363281 150.585938 194.203125 C 150.1875 197.203125 153.027344 196.910156 151.578125 204.664062 C 150.1875 212.113281 141.632812 216.617188 134.308594 215.144531 C 126.914062 214.203125 120.003906 207.507812 120.976562 199.679688 C 121.472656 191.726562 129.0625 185.289062 136.957031 185.816406 C 146.304688 185.667969 157.414062 188.339844 171.234375 180.738281 L 181.84375 174.90625 L 237.910156 163.128906 C 244.929688 162.140625 253.191406 163.304688 258.300781 170.769531 Z M 140.414062 209.929688 C 148.789062 206.609375 149.722656 194.695312 141.925781 191.328125 C 134.9375 187.796875 124.628906 193.683594 125.90625 201.945312 C 126.410156 208.652344 134.679688 212.203125 140.414062 209.929688 Z M 140.414062 209.929688 " fill-opacity="1" fill-rule="nonzero"/><g clip-path="url(#aa1191a93a)"><path stroke-linecap="butt" transform="matrix(0.108413, -0.25162, 0.251237, 0.108578, -5.235991, 255.421918)" fill="none" stroke-linejoin="miter" d="M 492.908484 526.353697 C 452.906088 470.959357 444.334581 430.517189 430.728683 434.351566 C 420.10061 437.351855 425.194116 446.457356 397.11715 452.804708 C 370.145844 458.908171 342.669276 436.714537 336.998149 410.009128 C 329.445321 383.835839 341.871645 350.969171 369.507235 342.915417 C 396.871585 333.081846 429.429393 349.242471 439.093464 376.494874 C 453.125713 407.64621 460.259708 448.786429 505.738972 484.170371 L 540.640353 511.338349 L 661.280267 682.441386 C 674.755311 704.566528 682.817798 733.971557 665.205809 761.908275 Z M 363.310289 422.956604 C 386.561184 446.258475 427.829678 432.166416 427.821579 401.136001 C 429.533954 372.58162 394.884865 346.501974 369.054453 362.73244 C 347.312945 374.119962 347.390317 407.001798 363.310289 422.956604 Z M 363.310289 422.956604 " stroke="#000000" stroke-width="7.541" stroke-opacity="1" stroke-miterlimit="4"/></g></svg>